HIERARCHY
ROOT mixamorig:Hips
{
	OFFSET -0.000008 104.274872 1.554316
	CHANNELS 6 Xposition Yposition Zposition Xrotation Yrotation Zrotation
	JOINT mixamorig:Spine
	{
		OFFSET -0.000005 10.181595 0.131519
		CHANNELS 6 Xposition Yposition Zposition Xrotation Yrotation Zrotation
		JOINT mixamorig:Spine1
		{
			OFFSET -0.000000 9.893959 -1.470707
			CHANNELS 6 Xposition Yposition Zposition Xrotation Yrotation Zrotation
			JOINT mixamorig:Spine2
			{
				OFFSET -0.000000 9.220757 -1.370641
				CHANNELS 6 Xposition Yposition Zposition Xrotation Yrotation Zrotation
				JOINT mixamorig:Neck
				{
					OFFSET 0.000001 16.740417 -2.049036
					CHANNELS 6 Xposition Yposition Zposition Xrotation Yrotation Zrotation
					JOINT mixamorig:Head
					{
						OFFSET 0.000000 9.617874 1.685006
						CHANNELS 6 Xposition Yposition Zposition Xrotation Yrotation Zrotation
						JOINT mixamorig:HeadTop_End
						{
							OFFSET 0.000002 22.037354 7.501101
							CHANNELS 6 Xposition Yposition Zposition Xrotation Yrotation Zrotation
							End Site
							{
								OFFSET 0.000168 2310.654297 -282.823242
							}
						}
					}
				}
				JOINT mixamorig:RightShoulder
				{
					OFFSET -4.569970 11.014908 -2.160885
					CHANNELS 6 Xposition Yposition Zposition Xrotation Yrotation Zrotation
					JOINT mixamorig:RightArm
					{
						OFFSET -10.592851 -0.524811 -2.232101
						CHANNELS 6 Xposition Yposition Zposition Xrotation Yrotation Zrotation
						JOINT mixamorig:RightForeArm
						{
							OFFSET -27.841511 0.000031 -0.000004
							CHANNELS 6 Xposition Yposition Zposition Xrotation Yrotation Zrotation
							JOINT mixamorig:RightHand
							{
								OFFSET -28.328831 -0.000015 0.000015
								CHANNELS 6 Xposition Yposition Zposition Xrotation Yrotation Zrotation
								JOINT mixamorig:RightHandThumb1
								{
									OFFSET -2.464806 -1.573990 2.681852
									CHANNELS 6 Xposition Yposition Zposition Xrotation Yrotation Zrotation
									JOINT mixamorig:RightHandThumb2
									{
										OFFSET -3.215179 -1.872803 1.924282
										CHANNELS 6 Xposition Yposition Zposition Xrotation Yrotation Zrotation
										JOINT mixamorig:RightHandThumb3
										{
											OFFSET -2.654831 -1.527969 1.512609
											CHANNELS 6 Xposition Yposition Zposition Xrotation Yrotation Zrotation
											JOINT mixamorig:RightHandThumb4
											{
												OFFSET -2.018814 -1.152008 1.108052
												CHANNELS 6 Xposition Yposition Zposition Xrotation Yrotation Zrotation
												End Site
												{
													OFFSET -188.809540 -114.533607 132.431396
												}
											}
										}
									}
								}
								JOINT mixamorig:RightHandIndex1
								{
									OFFSET -9.108284 -0.517868 2.259835
									CHANNELS 6 Xposition Yposition Zposition Xrotation Yrotation Zrotation
									JOINT mixamorig:RightHandIndex2
									{
										OFFSET -3.699989 0.000000 0.001215
										CHANNELS 6 Xposition Yposition Zposition Xrotation Yrotation Zrotation
										JOINT mixamorig:RightHandIndex3
										{
											OFFSET -2.850006 0.000031 -0.000522
											CHANNELS 6 Xposition Yposition Zposition Xrotation Yrotation Zrotation
											JOINT mixamorig:RightHandIndex4
											{
												OFFSET -2.772186 -0.000015 -0.000020
												CHANNELS 6 Xposition Yposition Zposition Xrotation Yrotation Zrotation
												End Site
												{
													OFFSET -277.218445 0.000000 -0.050231
												}
											}
										}
									}
								}
								JOINT mixamorig:RightHandMiddle1
								{
									OFFSET -9.532516 -0.000031 -0.000023
									CHANNELS 6 Xposition Yposition Zposition Xrotation Yrotation Zrotation
									JOINT mixamorig:RightHandMiddle2
									{
										OFFSET -3.700005 -0.000015 0.003713
										CHANNELS 6 Xposition Yposition Zposition Xrotation Yrotation Zrotation
										JOINT mixamorig:RightHandMiddle3
										{
											OFFSET -2.949974 0.000015 -0.002054
											CHANNELS 6 Xposition Yposition Zposition Xrotation Yrotation Zrotation
											JOINT mixamorig:RightHandMiddle4
											{
												OFFSET -2.946640 0.000000 -0.000156
												CHANNELS 6 Xposition Yposition Zposition Xrotation Yrotation Zrotation
												End Site
												{
													OFFSET -294.664337 0.000000 -0.113670
												}
											}
										}
									}
								}
								JOINT mixamorig:RightHandRing1
								{
									OFFSET -9.103600 -0.043076 -1.865134
									CHANNELS 6 Xposition Yposition Zposition Xrotation Yrotation Zrotation
									JOINT mixamorig:RightHandRing2
									{
										OFFSET -3.379288 0.000000 -0.001055
										CHANNELS 6 Xposition Yposition Zposition Xrotation Yrotation Zrotation
										JOINT mixamorig:RightHandRing3
										{
											OFFSET -2.889687 -0.000015 0.000379
											CHANNELS 6 Xposition Yposition Zposition Xrotation Yrotation Zrotation
											JOINT mixamorig:RightHandRing4
											{
												OFFSET -2.638809 -0.000015 0.000941
												CHANNELS 6 Xposition Yposition Zposition Xrotation Yrotation Zrotation
												End Site
												{
													OFFSET -263.880371 0.000000 0.516020
												}
											}
										}
									}
								}
								JOINT mixamorig:RightHandPinky1
								{
									OFFSET -8.076683 -0.486710 -3.806280
									CHANNELS 6 Xposition Yposition Zposition Xrotation Yrotation Zrotation
									JOINT mixamorig:RightHandPinky2
									{
										OFFSET -3.600014 -0.000015 -0.003747
										CHANNELS 6 Xposition Yposition Zposition Xrotation Yrotation Zrotation
										JOINT mixamorig:RightHandPinky3
										{
											OFFSET -2.099983 0.000000 -0.005739
											CHANNELS 6 Xposition Yposition Zposition Xrotation Yrotation Zrotation
											JOINT mixamorig:RightHandPinky4
											{
												OFFSET -2.115768 -0.000031 -0.003680
												CHANNELS 6 Xposition Yposition Zposition Xrotation Yrotation Zrotation
												End Site
												{
													OFFSET -211.577087 0.000000 -0.350686
												}
											}
										}
									}
								}
							}
						}
					}
				}
				JOINT mixamorig:LeftShoulder
				{
					OFFSET 4.570447 11.014725 -2.160855
					CHANNELS 6 Xposition Yposition Zposition Xrotation Yrotation Zrotation
					JOINT mixamorig:LeftArm
					{
						OFFSET 10.592371 -0.524597 -2.232119
						CHANNELS 6 Xposition Yposition Zposition Xrotation Yrotation Zrotation
						JOINT mixamorig:LeftForeArm
						{
							OFFSET 27.841532 -0.000031 0.000026
							CHANNELS 6 Xposition Yposition Zposition Xrotation Yrotation Zrotation
							JOINT mixamorig:LeftHand
							{
								OFFSET 28.328846 -0.000061 0.000022
								CHANNELS 6 Xposition Yposition Zposition Xrotation Yrotation Zrotation
								JOINT mixamorig:LeftHandThumb1
								{
									OFFSET 2.466141 -1.576172 2.681732
									CHANNELS 6 Xposition Yposition Zposition Xrotation Yrotation Zrotation
									JOINT mixamorig:LeftHandThumb2
									{
										OFFSET 3.217812 -1.872070 1.916482
										CHANNELS 6 Xposition Yposition Zposition Xrotation Yrotation Zrotation
										JOINT mixamorig:LeftHandThumb3
										{
											OFFSET 2.656029 -1.528778 1.514513
											CHANNELS 6 Xposition Yposition Zposition Xrotation Yrotation Zrotation
											JOINT mixamorig:LeftHandThumb4
											{
												OFFSET 2.020889 -1.154053 1.115139
												CHANNELS 6 Xposition Yposition Zposition Xrotation Yrotation Zrotation
												End Site
												{
													OFFSET 190.885437 -115.081749 130.048782
												}
											}
										}
									}
								}
								JOINT mixamorig:LeftHandIndex1
								{
									OFFSET 9.109314 -0.518021 2.259871
									CHANNELS 6 Xposition Yposition Zposition Xrotation Yrotation Zrotation
									JOINT mixamorig:LeftHandIndex2
									{
										OFFSET 3.699989 0.000000 -0.000322
										CHANNELS 6 Xposition Yposition Zposition Xrotation Yrotation Zrotation
										JOINT mixamorig:LeftHandIndex3
										{
											OFFSET 2.850006 0.000000 0.000352
											CHANNELS 6 Xposition Yposition Zposition Xrotation Yrotation Zrotation
											JOINT mixamorig:LeftHandIndex4
											{
												OFFSET 2.774864 -0.000031 -0.000027
												CHANNELS 6 Xposition Yposition Zposition Xrotation Yrotation Zrotation
												End Site
												{
													OFFSET 277.486267 0.000000 -0.009857
												}
											}
										}
									}
								}
								JOINT mixamorig:LeftHandMiddle1
								{
									OFFSET 9.533394 0.000061 0.000044
									CHANNELS 6 Xposition Yposition Zposition Xrotation Yrotation Zrotation
									JOINT mixamorig:LeftHandMiddle2
									{
										OFFSET 3.699989 -0.000015 -0.000231
										CHANNELS 6 Xposition Yposition Zposition Xrotation Yrotation Zrotation
										JOINT mixamorig:LeftHandMiddle3
										{
											OFFSET 2.949997 -0.000015 -0.000059
											CHANNELS 6 Xposition Yposition Zposition Xrotation Yrotation Zrotation
											JOINT mixamorig:LeftHandMiddle4
											{
												OFFSET 2.952896 0.000031 0.000063
												CHANNELS 6 Xposition Yposition Zposition Xrotation Yrotation Zrotation
												End Site
												{
													OFFSET 295.289337 0.000000 0.022810
												}
											}
										}
									}
								}
								JOINT mixamorig:LeftHandRing1
								{
									OFFSET 9.104523 -0.042999 -1.865074
									CHANNELS 6 Xposition Yposition Zposition Xrotation Yrotation Zrotation
									JOINT mixamorig:LeftHandRing2
									{
										OFFSET 3.150009 -0.000031 0.000043
										CHANNELS 6 Xposition Yposition Zposition Xrotation Yrotation Zrotation
										JOINT mixamorig:LeftHandRing3
										{
											OFFSET 2.949982 -0.000015 0.000040
											CHANNELS 6 Xposition Yposition Zposition Xrotation Yrotation Zrotation
											JOINT mixamorig:LeftHandRing4
											{
												OFFSET 2.644348 0.000000 0.000057
												CHANNELS 6 Xposition Yposition Zposition Xrotation Yrotation Zrotation
												End Site
												{
													OFFSET 264.434631 0.000000 0.012105
												}
											}
										}
									}
								}
								JOINT mixamorig:LeftHandPinky1
								{
									OFFSET 8.077789 -0.486847 -3.806259
									CHANNELS 6 Xposition Yposition Zposition Xrotation Yrotation Zrotation
									JOINT mixamorig:LeftHandPinky2
									{
										OFFSET 3.599953 0.000031 0.014727
										CHANNELS 6 Xposition Yposition Zposition Xrotation Yrotation Zrotation
										JOINT mixamorig:LeftHandPinky3
										{
											OFFSET 2.100021 0.000015 0.007705
											CHANNELS 6 Xposition Yposition Zposition Xrotation Yrotation Zrotation
											JOINT mixamorig:LeftHandPinky4
											{
												OFFSET 2.125504 0.000031 0.007517
												CHANNELS 6 Xposition Yposition Zposition Xrotation Yrotation Zrotation
												End Site
												{
													OFFSET 212.550781 0.000000 0.625752
												}
											}
										}
									}
								}
							}
						}
					}
				}
			}
		}
	}
	JOINT mixamorig:RightUpLeg
	{
		OFFSET -8.207787 -6.751648 -1.599560
		CHANNELS 6 Xposition Yposition Zposition Xrotation Yrotation Zrotation
		JOINT mixamorig:RightLeg
		{
			OFFSET -0.000002 -44.370117 0.345942
			CHANNELS 6 Xposition Yposition Zposition Xrotation Yrotation Zrotation
			JOINT mixamorig:RightFoot
			{
				OFFSET 0.000003 -44.423679 -3.043532
				CHANNELS 6 Xposition Yposition Zposition Xrotation Yrotation Zrotation
				JOINT mixamorig:RightToeBase
				{
					OFFSET -0.000002 -8.728671 10.710558
					CHANNELS 6 Xposition Yposition Zposition Xrotation Yrotation Zrotation
					JOINT mixamorig:RightToe_End
					{
						OFFSET -0.000001 -0.000679 9.278119
						CHANNELS 6 Xposition Yposition Zposition Xrotation Yrotation Zrotation
						End Site
						{
							OFFSET 0.000000 -0.067690 927.812134
						}
					}
				}
			}
		}
	}
	JOINT mixamorig:LeftUpLeg
	{
		OFFSET 8.207793 -6.751686 -1.599556
		CHANNELS 6 Xposition Yposition Zposition Xrotation Yrotation Zrotation
		JOINT mixamorig:LeftLeg
		{
			OFFSET -0.000004 -44.370014 0.346954
			CHANNELS 6 Xposition Yposition Zposition Xrotation Yrotation Zrotation
			JOINT mixamorig:LeftFoot
			{
				OFFSET -0.000001 -44.423672 -3.044401
				CHANNELS 6 Xposition Yposition Zposition Xrotation Yrotation Zrotation
				JOINT mixamorig:LeftToeBase
				{
					OFFSET -0.000002 -8.728669 10.710558
					CHANNELS 6 Xposition Yposition Zposition Xrotation Yrotation Zrotation
					JOINT mixamorig:LeftToe_End
					{
						OFFSET -0.000003 -0.000679 9.278133
						CHANNELS 6 Xposition Yposition Zposition Xrotation Yrotation Zrotation
						End Site
						{
							OFFSET 0.000000 -0.068021 927.813477
						}
					}
				}
			}
		}
	}
}
MOTION
Frames: 3
Frame Time: 0.033333
0.000006 104.270477 1.554256 0.000010 0.000003 -0.000113 -0.000005 10.181587 0.131522 0.000001 -0.000003 0.000084 -0.000000 9.893967 -1.470711 0.000001 0.000000 -0.000000 -0.000000 9.220802 -1.370642 0.000000 -0.000000 -0.000000 0.000001 16.740433 -2.049030 0.000000 -0.000000 -0.000000 0.000000 9.617859 1.685014 0.000000 0.000000 0.000000 0.000002 22.037384 7.501101 0.000000 -0.000000 0.000000 -4.569968 11.014880 -2.160881 0.000008 0.000001 -0.000038 -10.592870 -0.524778 -2.231883 73.999574 35.499307 -27.122299 -27.841534 0.000015 0.000556 -57.019440 105.198471 70.781742 -28.328823 0.000021 0.000030 -0.000325 -0.000043 0.000008 -2.464432 -1.573969 2.682384 -24.228214 -151.961013 36.717605 -3.215264 -1.872571 1.924649 156.501545 33.164448 11.202815 -2.654960 -1.527900 1.513098 149.719468 25.803357 -41.924022 -2.018822 -1.151986 1.108059 0.000001 0.000000 -0.000000 -9.108380 -0.517561 2.260145 102.868598 17.370334 -21.750474 -3.700052 0.000322 0.001514 99.912738 12.565419 -14.899262 -2.850080 0.000382 -0.000249 98.741292 9.074077 -10.566983 -2.772181 -0.000015 -0.000018 -0.000000 -0.000003 -0.000002 -9.532589 0.000261 0.000261 95.978747 16.966460 -18.963223 -3.700071 0.000325 0.003974 95.671621 11.288388 -12.352760 -2.950037 0.000345 -0.001817 96.405374 10.200379 -11.394225 -2.946640 -0.000010 -0.000156 0.000001 -0.000002 0.000000 -9.103712 -0.042769 -1.864871 92.134799 20.108176 -20.807794 -3.379351 0.000319 -0.000791 94.335383 11.549994 -12.471004 -2.889750 0.000363 0.000656 100.088124 6.588934 -7.915085 -2.638805 -0.000015 0.000942 -0.000002 -0.000000 -0.000002 -8.076753 -0.486396 -3.806081 75.759796 18.310815 -14.171642 -3.600050 0.000265 -0.003560 79.988817 10.090061 -8.165793 -2.100007 0.000313 -0.005513 86.237067 6.058561 -5.467081 -2.115768 -0.000052 -0.003679 -0.000002 0.000001 -0.000006 4.570446 11.014691 -2.160851 -0.000018 0.000010 -0.000021 10.592412 -0.524474 -2.232382 74.121370 -16.277946 12.329040 27.841812 0.000075 -0.000200 94.876519 -72.510641 77.222344 28.328823 -0.000028 0.000018 0.000023 -0.000088 0.000000 2.466077 -1.576168 2.681898 -27.779418 155.188113 -31.829839 3.217678 -1.871677 1.916369 146.853138 -34.195953 -36.469358 2.656079 -1.528591 1.514428 147.016803 -27.512641 29.737670 2.020895 -1.154070 1.115137 -0.000001 0.000004 0.000004 9.109387 -0.517834 2.259749 91.394953 -14.573267 14.915981 3.700039 0.000175 -0.000461 88.561968 -15.213302 14.857335 2.850077 0.000206 0.000198 86.402316 -14.078259 13.227494 2.774895 -0.000046 -0.000023 -0.000005 -0.000000 -0.000000 9.533460 0.000215 -0.000088 81.141541 -13.672564 11.714082 3.700073 0.000154 -0.000368 86.419296 -16.932119 15.916595 2.950057 0.000146 -0.000174 84.188679 -20.886710 18.910045 2.952853 -0.000027 0.000065 0.000004 -0.000000 -0.000004 9.104601 -0.042859 -1.865220 79.312321 -13.837693 11.489433 3.150062 0.000189 -0.000075 89.028429 -15.268207 15.016267 2.950041 0.000147 -0.000068 88.719499 -17.362612 16.986336 2.644312 0.000028 0.000055 -0.000002 -0.000001 -0.000001 8.077847 -0.486743 -3.806417 69.632515 -15.356704 11.124911 3.600024 0.000150 0.014580 71.974081 -13.446879 10.162288 2.100047 0.000165 0.007554 76.122520 -13.425501 10.918121 2.125510 -0.000018 0.007514 0.000001 -0.000000 -0.000003 -8.207786 -6.751667 -1.599560 -0.077001 -0.000003 0.000080 -0.000002 -44.370110 0.345938 0.153719 -0.000000 -0.000000 0.000000 -44.423679 -3.043532 -0.076700 0.000000 -0.000002 -0.000006 -8.728667 10.710559 -0.000009 -0.000000 -0.000000 -0.000001 -0.000679 9.278123 0.000000 -0.000000 -0.000000 8.207792 -6.751710 -1.599556 -0.074518 -0.000003 0.000081 -0.000002 -44.370014 0.346960 0.148822 0.000002 0.000000 -0.000001 -44.423664 -3.044403 -0.074314 0.000000 -0.000002 -0.000004 -8.728671 10.710558 0.000007 -0.000000 -0.000000 0.000000 -0.000680 9.278137 -0.000000 0.000000 -0.000001 
0.000006 104.270477 1.554256 0.000010 0.000003 -0.000113 -0.000005 10.181587 0.131522 0.000001 -0.000003 0.000084 -0.000000 9.893967 -1.470711 0.000001 0.000000 -0.000000 -0.000000 9.220802 -1.370642 0.000000 -0.000000 -0.000000 0.000001 16.740433 -2.049030 0.000000 -0.000000 -0.000000 0.000000 9.617859 1.685014 0.000000 0.000000 0.000000 0.000002 22.037384 7.501101 0.000000 -0.000000 0.000000 -4.569968 11.014880 -2.160881 0.000008 0.000001 -0.000038 -10.592865 -0.524802 -2.231849 74.340810 39.162471 -30.188500 -27.841537 -0.000002 0.000549 -54.722861 103.070102 66.160450 -28.328806 0.000023 0.000027 -0.000321 -0.000045 0.000007 -2.464420 -1.573821 2.682358 -42.922432 -159.821441 1.745261 -3.215262 -1.872579 1.924644 152.656135 32.630109 12.363862 -2.654956 -1.527852 1.513052 146.683503 27.451973 -32.063661 -2.018826 -1.152007 1.108061 -0.000005 0.000002 0.000002 -9.108375 -0.517545 2.260138 103.274578 16.337244 -20.616287 -3.700049 0.000327 0.001532 100.452651 12.464037 -14.919836 -2.850087 0.000367 -0.000247 100.488407 9.575462 -11.497899 -2.772164 -0.000000 -0.000017 -0.000000 0.000001 0.000000 -9.532610 0.000265 0.000257 95.729097 18.194384 -20.233756 -3.700074 0.000322 0.003992 97.964734 11.990939 -13.660811 -2.950047 0.000321 -0.001771 100.331108 11.247002 -13.455278 -2.946609 0.000001 -0.000158 -0.000000 -0.000000 -0.000000 -9.103711 -0.042778 -1.864877 90.599611 21.617357 -21.792516 -3.379364 0.000310 -0.000799 96.804934 12.759411 -14.376834 -2.889760 0.000346 0.000667 102.997272 8.445988 -10.664832 -2.638814 -0.000014 0.000939 -0.000000 0.000002 -0.000001 -8.076758 -0.486409 -3.806042 75.672684 21.566558 -16.705043 -3.600076 0.000252 -0.003556 79.732452 13.965264 -11.361382 -2.100031 0.000299 -0.005501 85.110420 8.689137 -7.769799 -2.115769 -0.000044 -0.003676 0.000001 0.000001 -0.000003 4.570446 11.014691 -2.160851 -0.000018 0.000010 -0.000021 10.592402 -0.524471 -2.232376 74.411045 -13.895516 10.571409 27.841812 0.000052 -0.000197 96.465992 -73.998406 80.312629 28.328831 -0.000028 0.000023 0.000023 -0.000089 0.000000 2.466270 -1.576022 2.681814 11.208201 172.276577 -109.332996 3.217807 -1.871726 1.916398 168.053294 -30.815662 5.658504 2.656103 -1.528666 1.514495 149.616195 -23.713742 57.178949 2.020887 -1.154085 1.115148 0.000004 0.000004 0.000004 9.109399 -0.517849 2.259737 93.723781 -21.653474 23.056951 3.700054 0.000172 -0.000449 88.958815 -15.555310 15.295572 2.850060 0.000217 0.000218 88.224297 -11.870288 11.509209 2.774895 -0.000013 -0.000019 0.000003 0.000001 -0.000000 9.533473 0.000183 -0.000093 84.800419 -20.338362 18.595462 3.700041 0.000180 -0.000374 85.825350 -12.250336 11.392157 2.950066 0.000174 -0.000211 86.293313 -12.132048 11.379408 2.952880 -0.000014 0.000060 0.000001 -0.000002 0.000000 9.104597 -0.042874 -1.865216 81.929724 -20.500364 17.847081 3.150055 0.000193 -0.000095 87.136883 -12.364563 11.767706 2.950027 0.000181 -0.000088 88.378399 -10.490830 10.201291 2.644317 0.000033 0.000061 0.000003 0.000002 0.000000 8.077863 -0.486753 -3.806391 71.134965 -21.125896 15.639998 3.599992 0.000151 0.014584 72.444326 -16.119919 12.234749 2.100037 0.000168 0.007571 75.564507 -11.995422 9.689202 2.125497 -0.000001 0.007516 0.000001 0.000003 0.000003 -8.207786 -6.751667 -1.599560 -0.077001 -0.000003 0.000080 -0.000002 -44.370110 0.345938 0.153719 -0.000000 -0.000000 0.000000 -44.423679 -3.043532 -0.076700 0.000000 -0.000002 -0.000006 -8.728667 10.710559 -0.000009 -0.000000 -0.000000 -0.000001 -0.000679 9.278123 0.000000 -0.000000 -0.000000 8.207792 -6.751710 -1.599556 -0.074518 -0.000003 0.000081 -0.000002 -44.370014 0.346960 0.148822 0.000002 0.000000 -0.000001 -44.423664 -3.044403 -0.074314 0.000000 -0.000002 -0.000004 -8.728671 10.710558 0.000007 -0.000000 -0.000000 0.000000 -0.000680 9.278137 -0.000000 0.000000 -0.000001 
0.000006 104.270477 1.554256 0.000010 0.000003 -0.000113 -0.000005 10.181587 0.131522 0.000001 -0.000003 0.000084 -0.000000 9.893967 -1.470711 0.000001 0.000000 -0.000000 -0.000000 9.220802 -1.370642 0.000000 -0.000000 -0.000000 0.000001 16.740433 -2.049030 0.000000 -0.000000 -0.000000 0.000000 9.617859 1.685014 0.000000 0.000000 0.000000 0.000002 22.037384 7.501101 0.000000 -0.000000 0.000000 -4.569968 11.014880 -2.160881 0.000008 0.000001 -0.000038 -10.592844 -0.524818 -2.231820 74.410369 46.162947 -35.855846 -27.841518 0.000020 0.000544 -53.182401 101.765823 63.230920 -28.328836 -0.000007 0.000029 -0.000319 -0.000048 0.000013 -2.464407 -1.573868 2.682344 -38.014651 -155.324225 11.289261 -3.215272 -1.872599 1.924638 153.595436 31.992193 7.129794 -2.654963 -1.527853 1.513075 145.475967 27.756594 -30.633098 -2.018843 -1.151998 1.108063 -0.000003 -0.000001 0.000009 -9.108370 -0.517553 2.260138 104.078976 15.609900 -19.988591 -3.700066 0.000321 0.001537 101.671191 11.714633 -14.328231 -2.850076 0.000377 -0.000225 101.002583 8.792430 -10.655621 -2.772156 0.000000 -0.000017 -0.000001 0.000002 0.000000 -9.532595 0.000258 0.000268 97.466574 17.018294 -19.515008 -3.700072 0.000314 0.004001 99.213060 11.137325 -12.963814 -2.950063 0.000349 -0.001748 99.998354 10.710755 -12.740287 -2.946619 -0.000015 -0.000153 -0.000000 0.000004 0.000001 -9.103704 -0.042788 -1.864889 91.677681 19.485176 -20.005791 -3.379355 0.000298 -0.000778 97.989398 12.219056 -14.057194 -2.889774 0.000333 0.000682 103.130727 8.795883 -11.129926 -2.638823 -0.000000 0.000935 0.000000 -0.000001 -0.000000 -8.076759 -0.486421 -3.806075 76.530678 19.979934 -15.695911 -3.600074 0.000252 -0.003543 80.693317 13.824857 -11.436027 -2.100018 0.000299 -0.005519 86.171313 8.807153 -8.025149 -2.115758 -0.000051 -0.003675 -0.000002 0.000000 -0.000001 4.570446 11.014691 -2.160851 -0.000018 0.000010 -0.000021 10.592449 -0.524465 -2.232401 73.746720 -28.788073 21.793339 27.841810 0.000029 -0.000182 98.196735 -77.113102 85.233507 28.328848 -0.000030 0.000022 0.000020 -0.000089 -0.000001 2.466251 -1.576034 2.681822 11.261833 171.644621 -108.626891 3.217829 -1.871765 1.916395 169.325499 -28.895795 12.733913 2.656106 -1.528650 1.514478 150.372980 -23.516080 56.523545 2.020887 -1.154082 1.115151 -0.000001 -0.000003 0.000001 9.109378 -0.517847 2.259749 93.798278 -22.099565 23.560446 3.700065 0.000166 -0.000458 88.822403 -15.844608 15.543291 2.850053 0.000193 0.000209 87.720386 -12.017713 11.550823 2.774890 -0.000045 -0.000028 0.000000 -0.000001 0.000002 9.533470 0.000198 -0.000083 85.384762 -20.564731 18.993202 3.700051 0.000184 -0.000370 86.410123 -12.339376 11.592245 2.950069 0.000166 -0.000209 86.812736 -11.705139 11.078277 2.952872 -0.000030 0.000064 0.000007 -0.000001 0.000001 9.104582 -0.042871 -1.865202 82.574316 -20.450703 18.003612 3.150059 0.000198 -0.000099 87.220478 -12.099867 11.532358 2.950016 0.000184 -0.000082 88.270995 -9.865964 9.575699 2.644331 0.000044 0.000057 0.000000 -0.000000 0.000001 8.077831 -0.486751 -3.806375 72.316206 -21.298017 16.106590 3.600009 0.000153 0.014574 72.958776 -15.767960 12.085128 2.100029 0.000167 0.007544 75.516293 -11.314501 9.148078 2.125519 -0.000015 0.007516 -0.000000 0.000000 -0.000000 -8.207786 -6.751667 -1.599560 -0.077001 -0.000003 0.000080 -0.000002 -44.370110 0.345938 0.153719 -0.000000 -0.000000 0.000000 -44.423679 -3.043532 -0.076700 0.000000 -0.000002 -0.000006 -8.728667 10.710559 -0.000009 -0.000000 -0.000000 -0.000001 -0.000679 9.278123 0.000000 -0.000000 -0.000000 8.207792 -6.751710 -1.599556 -0.074518 -0.000003 0.000081 -0.000002 -44.370014 0.346960 0.148822 0.000002 0.000000 -0.000001 -44.423664 -3.044403 -0.074314 0.000000 -0.000002 -0.000004 -8.728671 10.710558 0.000007 -0.000000 -0.000000 0.000000 -0.000680 9.278137 -0.000000 0.000000 -0.000001 
